<svg width="325" height="36" viewBox="0 0 325 36" fill="none" xmlns="http://www.w3.org/2000/svg">
<path d="M42.8431 15.2674C42.3272 14.7515 41.6501 13.8326 41.5372 12.6719C41.5131 12.3656 41.4566 12.0673 41.3841 11.7771C40.8843 9.75391 39.3689 8.2385 37.515 7.59364C37.3779 7.54528 37.2409 7.49691 37.0958 7.43242C36.3945 7.10999 35.6771 6.56188 35.2418 5.77999C34.0811 3.67615 31.7919 2.42675 29.1802 2.71693C28.1081 2.83784 27.0441 2.56378 26.3428 2.0882C25.3594 1.41916 24.247 1 22.909 1C21.5709 1 20.4585 1.41916 19.4751 2.0882C18.7738 2.56378 17.7098 2.83784 16.6378 2.71693C14.0261 2.42675 11.7449 3.67615 10.5761 5.77999C10.0602 6.71503 9.1413 7.31959 8.31105 7.60171C6.23139 8.31105 4.51447 10.2053 4.28877 12.6799C4.18398 13.8407 3.49882 14.7596 2.98293 15.2755C1.58843 16.67 1 18.3063 1 19.9749C1 19.9991 1 20.0313 1 20.0555C1.0403 23.3362 3.49075 26.0446 6.66667 26.4799C6.96491 26.5202 7.26316 26.5444 7.56947 26.5444H16.9924C17.8872 26.5444 18.6126 27.2859 18.6126 28.1807V28.5595C18.6126 30.0669 17.1214 30.2684 17.1214 30.2684L9.45568 31.5903C9.18161 31.6306 8.94785 31.8241 8.94785 32.0901V33.0332H36.854V32.0901C36.854 31.8241 36.6202 31.6306 36.3462 31.5903L28.6804 30.2684C28.6804 30.2684 27.1892 30.0669 27.1892 28.5595V28.1807C27.1892 27.2859 27.9147 26.5444 28.8094 26.5444H38.2324C41.8597 26.5444 44.8018 23.6022 44.8018 19.9749C44.826 18.2983 44.2376 16.6619 42.8431 15.2674Z" fill="#00994E"/>
<path d="M14.4535 10.8179C22.5626 7.18255 30.7845 6.12659 37.1041 7.43242C36.4028 7.10999 35.6854 6.56188 35.2501 5.77999C34.0894 3.67615 31.8002 2.42675 29.1885 2.71693C28.1164 2.83784 27.0524 2.56378 26.3511 2.0882C25.3677 1.41916 24.2553 1 22.9173 1C21.5792 1 20.4668 1.41916 19.4834 2.0882C18.7821 2.56378 17.7181 2.83784 16.6461 2.71693C14.0344 2.42675 11.7532 3.67615 10.5844 5.77999C10.0685 6.71503 9.1496 7.31959 8.31935 7.60171C6.23969 8.31105 4.52277 10.2053 4.29707 12.6799C4.19228 13.8407 3.50712 14.7596 2.99123 15.2755C1.59673 16.67 1.0083 18.3063 1.0083 19.9749C1.0083 19.9991 1.0083 20.0313 1.0083 20.0555C4.4341 16.5007 9.02869 13.2523 14.4535 10.8179Z" fill="url(#paint0_linear_20_1876)"/>
<path d="M21.6112 15.5899C28.5434 12.4865 35.5562 11.2613 41.3921 11.7853C40.8924 9.76203 39.377 8.24662 37.523 7.60176C37.386 7.5534 37.2489 7.50502 37.1038 7.44054C30.7923 6.14277 22.5624 7.19067 14.4533 10.826C9.02844 13.2604 4.43385 16.5008 1.01611 20.0555C1.05642 23.3362 3.50687 26.0446 6.68278 26.4799C10.1892 22.2803 15.348 18.395 21.6112 15.5899Z" fill="url(#paint1_linear_20_1876)"/>
<path d="M42.8431 15.2674C42.3272 14.7515 41.6501 13.8326 41.5373 12.6719C41.5131 12.3655 41.4566 12.0673 41.3841 11.7771C35.5482 11.2532 28.5354 12.4784 21.6032 15.5818C15.34 18.3869 10.1811 22.2722 6.67474 26.4718C6.97299 26.5121 7.27124 26.5363 7.57754 26.5363H17.0005C17.8952 26.5363 18.6207 27.2778 18.6207 28.1726V28.5514C18.6207 30.0588 17.1295 30.2603 17.1295 30.2603L9.46374 31.5823C9.18968 31.6226 8.95592 31.816 8.95592 32.082V33.0251H36.862V32.082C36.862 31.816 36.6283 31.6226 36.3542 31.5823L28.6885 30.2603C28.6885 30.2603 27.1973 30.0588 27.1973 28.5514V28.1726C27.1973 27.2778 27.9227 26.5363 28.8175 26.5363H38.2404C41.8677 26.5363 44.8099 23.5941 44.8099 19.9668C44.826 18.2982 44.2376 16.6619 42.8431 15.2674Z" fill="#00994E"/>
<path d="M158.2 7.25515H163.181V9.34287H158.2V7.25515ZM158.2 3.77293H163.181V5.85258H158.2V3.77293ZM163.625 15.2755C164.197 14.1793 164.576 12.9863 164.858 11.8336C164.93 11.4628 164.616 11.5112 164.616 11.5112H163.27C163.173 12.3656 162.964 13.2039 162.706 13.9375C162.109 12.9379 161.674 11.8497 161.513 10.7293H163.81H163.826H164.737C164.866 10.7293 164.971 10.6326 164.971 10.4955V9.91517L164.979 3.24092C164.979 2.65249 164.471 2.3623 164.028 2.3623H156.652C156.523 2.3623 156.426 2.46708 156.426 2.59605L156.418 18.927C156.418 19.0641 156.523 19.1689 156.66 19.1689H156.668C157.716 19.1044 159.651 18.7094 161.287 18.1048H161.303C161.392 18.0645 161.448 17.9839 161.448 17.8791V16.8151C161.448 16.8151 161.448 16.7587 161.376 16.7748C160.247 17.0167 159.143 17.1859 158.216 17.2988V10.7293H159.417C160.449 14.4614 162.786 17.4922 165.777 19.1527C165.801 19.1688 165.841 19.1689 165.865 19.1689C165.994 19.1689 166.091 19.0721 166.099 18.9512V18.9432V18.9351V17.5648C165.229 17.0005 164.374 16.2025 163.625 15.2755ZM155.499 16.2509C154.613 16.5088 153.67 16.7265 152.743 16.9119V11.4064H155.266C155.387 11.4064 155.491 11.3016 155.491 11.1726V10.4149C155.491 10.286 155.387 10.1812 155.258 10.1812H152.735V8.49648H154.669C154.798 8.49648 154.895 8.39171 154.895 8.26274V7.49696C154.895 7.36799 154.79 7.27127 154.669 7.27127H149.019C148.89 7.27127 148.785 7.36799 148.785 7.49696V8.25467C148.785 8.38364 148.89 8.48844 149.019 8.48844H150.953V10.1731H148.43C148.301 10.1731 148.196 10.2779 148.196 10.4069V11.1726C148.196 11.3016 148.301 11.4064 148.43 11.4064H150.953V17.2262C149.647 17.4277 148.495 17.5406 147.777 17.5567H147.769C147.64 17.5567 147.535 17.6615 147.535 17.7905V18.9593C147.535 19.0882 147.64 19.193 147.769 19.193H147.777H147.785C149.494 19.1286 153.162 18.4434 155.419 17.4197C155.419 17.4197 155.556 17.3632 155.556 17.2101V16.3073C155.572 16.2589 155.54 16.2347 155.499 16.2509ZM153.355 2.37035H150.373C150.075 2.35423 149.881 2.53158 149.817 2.8137C149.784 2.90237 149.752 2.99103 149.72 3.07969C149.115 4.69183 148.301 5.78003 147.552 6.55385V7.49696C147.552 7.60175 147.64 7.69041 147.745 7.69041C147.761 7.69041 147.785 7.68237 147.801 7.68237C147.826 7.66625 147.858 7.6501 147.882 7.63398C149.817 6.49742 151.058 5.18355 151.864 3.64395C152.598 5.03845 153.694 6.22338 155.33 7.30352C155.354 7.31964 155.378 7.33576 155.403 7.35188C155.427 7.35994 155.443 7.35992 155.467 7.35992C155.548 7.35992 155.62 7.30349 155.644 7.23095V6.10246C155.056 5.47372 154.476 4.30494 154.016 3.07165C153.887 2.74116 153.823 2.34617 153.355 2.37035ZM155.169 12.3334H153.863C153.734 12.3334 153.629 12.4382 153.629 12.5671L153.452 15.864C153.452 15.8882 153.468 15.9043 153.492 15.9043H154.669C154.742 15.9043 154.806 15.8479 154.806 15.7672L155.298 12.4704C155.298 12.3898 155.241 12.3334 155.169 12.3334ZM149.035 15.8962H150.212C150.236 15.8962 150.252 15.8801 150.252 15.8559L150.075 12.5591C150.075 12.4301 149.97 12.3253 149.841 12.3253H148.543C148.47 12.3253 148.406 12.3817 148.406 12.4543L148.898 15.7511C148.898 15.8398 148.962 15.8962 149.035 15.8962Z" fill="#040000"/>
<path d="M112.326 13.1797V8.42386H116.083L116.091 13.1797H112.326ZM120.887 7.05356H118.396V3.55519C118.396 2.99901 117.945 2.54761 117.388 2.54761H116.316C116.203 2.54761 116.107 2.64434 116.099 2.75719C116.099 2.76525 116.091 2.77331 116.091 2.78137V7.05356H112.334V2.78137C112.334 2.6524 112.238 2.54761 112.101 2.54761H111.045C110.488 2.54761 110.029 2.99901 110.029 3.55519V7.05356H106.756V3.23277C106.756 3.1038 106.652 2.999 106.523 2.999H105.467C104.91 2.999 104.451 3.4504 104.451 4.00659V7.05356H102.75C102.645 7.05356 102.565 7.13415 102.565 7.23894V8.24653C102.565 8.34325 102.645 8.43193 102.75 8.43193H104.451V18.1612C104.451 18.7174 104.902 19.1768 105.459 19.1768H120.032C120.161 19.1768 120.266 19.0801 120.266 18.9431V18.0242C120.266 17.8952 120.161 17.7823 120.032 17.7823H106.748V8.42386H110.021V13.5666C110.021 14.1228 110.472 14.5822 111.029 14.5822H117.372C117.928 14.5822 118.388 14.1308 118.388 13.5747V8.43193H120.879C120.975 8.43193 121.056 8.35131 121.056 8.24653V7.23894C121.064 7.13415 120.983 7.05356 120.887 7.05356Z" fill="#040000"/>
<path d="M188.314 7.63395H177.255C177.15 7.63395 177.07 7.71457 177.07 7.81935V8.83501C177.07 8.93174 177.15 9.02039 177.255 9.02039H183.599V17.194C183.591 17.6937 183.454 17.9597 182.64 17.9597H181.809C181.753 17.9597 181.745 18 181.745 18.0161V18.9915C181.745 19.0963 181.826 19.1769 181.93 19.1769H182.027H183.277C183.422 19.1769 183.551 19.1769 183.68 19.1688C185.348 19.1285 185.904 18.7819 185.904 17.1778V9.01235H188.314C188.419 9.01235 188.5 8.93173 188.5 8.82694V7.81129C188.5 7.71456 188.411 7.63395 188.314 7.63395ZM178.351 4.36938H187.492C187.597 4.36938 187.678 4.28876 187.678 4.18397V3.17639C187.678 3.0716 187.597 2.99101 187.492 2.99101H178.351C178.247 2.99101 178.166 3.0716 178.166 3.17639V4.18397C178.166 4.2807 178.247 4.36938 178.351 4.36938ZM176.304 2.37032H174.394C173.757 3.20057 172.443 5.03842 170.154 5.81225C170.138 5.81225 170.073 5.86062 170.073 5.89286C170.073 5.89286 170.073 5.89284 170.073 5.9009V6.83595C170.073 6.83595 170.017 7.2551 170.428 7.11001C174.321 5.81224 175.635 3.8132 176.449 2.62022C176.586 2.3381 176.304 2.37032 176.304 2.37032ZM176.296 6.40873H174.386C173.749 7.23898 172.435 9.07681 170.146 9.85064C170.13 9.85064 170.065 9.89901 170.065 9.93125V9.93932V10.8744C170.065 10.8744 170.017 11.2935 170.42 11.1565C171.081 10.9389 171.669 10.689 172.193 10.4391V18.1774C172.193 18.7416 172.644 19.193 173.201 19.193H174.257C174.386 19.193 174.49 19.0882 174.49 18.9592V8.95592C175.466 8.1176 176.022 7.28736 176.433 6.67475C176.586 6.3765 176.296 6.40873 176.296 6.40873Z" fill="#040000"/>
<path d="M67.3234 13.5425C65.0423 14.1954 62.3258 14.4211 61.0845 14.4534H61.0764C60.9716 14.4534 60.8829 14.534 60.8829 14.6387V16.001C60.8829 16.0977 60.9716 16.1864 61.0683 16.1864H61.0845H61.0925C62.4951 16.13 65.4937 15.4932 67.3476 14.671C67.3476 14.671 67.4605 14.6307 67.4605 14.5017V13.6473C67.4605 13.5022 67.3234 13.5425 67.3234 13.5425ZM65.268 8.89149H63.0755V11.6321H65.268V8.89149ZM67.4605 8.8431V11.6805C67.4605 12.2286 67.0171 12.6719 66.469 12.6719H61.8825C61.3263 12.6719 60.891 12.2286 60.891 11.6805V8.83506C60.891 8.28693 61.3343 7.84358 61.8825 7.84358H66.469C67.0252 7.85164 67.4605 8.29497 67.4605 8.8431ZM65.268 8.89149H63.0755V11.6321H65.268V8.89149ZM67.4605 8.8431V11.6805C67.4605 12.2286 67.0171 12.6719 66.469 12.6719H61.8825C61.3263 12.6719 60.891 12.2286 60.891 11.6805V8.83506C60.891 8.28693 61.3343 7.84358 61.8825 7.84358H66.469C67.0252 7.85164 67.4605 8.29497 67.4605 8.8431ZM67.4605 13.6473V14.5017C67.4605 14.6307 67.3476 14.671 67.3476 14.671C65.4937 15.4932 62.487 16.13 61.0925 16.1864H61.0845H61.0683C60.9716 16.1864 60.8829 16.0977 60.8829 16.001V14.6387C60.8829 14.534 60.9716 14.4534 61.0764 14.4534H61.0845C62.3258 14.4211 65.0423 14.1954 67.3234 13.5425C67.3234 13.5425 67.4605 13.5022 67.4605 13.6473ZM67.4605 13.6473V14.5017C67.4605 14.6307 67.3476 14.671 67.3476 14.671C65.4937 15.4932 62.487 16.13 61.0925 16.1864H61.0845H61.0683C60.9716 16.1864 60.8829 16.0977 60.8829 16.001V14.6387C60.8829 14.534 60.9716 14.4534 61.0764 14.4534H61.0845C62.3258 14.4211 65.0423 14.1954 67.3234 13.5425C67.3234 13.5425 67.4605 13.5022 67.4605 13.6473ZM65.268 8.89149H63.0755V11.6321H65.268V8.89149ZM67.4605 8.8431V11.6805C67.4605 12.2286 67.0171 12.6719 66.469 12.6719H61.8825C61.3263 12.6719 60.891 12.2286 60.891 11.6805V8.83506C60.891 8.28693 61.3343 7.84358 61.8825 7.84358H66.469C67.0252 7.85164 67.4605 8.29497 67.4605 8.8431ZM65.268 8.89149H63.0755V11.6321H65.268V8.89149ZM67.4605 8.8431V11.6805C67.4605 12.2286 67.0171 12.6719 66.469 12.6719H61.8825C61.3263 12.6719 60.891 12.2286 60.891 11.6805V8.83506C60.891 8.28693 61.3343 7.84358 61.8825 7.84358H66.469C67.0252 7.85164 67.4605 8.29497 67.4605 8.8431ZM67.4605 13.6473V14.5017C67.4605 14.6307 67.3476 14.671 67.3476 14.671C65.4937 15.4932 62.487 16.13 61.0925 16.1864H61.0845H61.0683C60.9716 16.1864 60.8829 16.0977 60.8829 16.001V14.6387C60.8829 14.534 60.9716 14.4534 61.0764 14.4534H61.0845C62.3258 14.4211 65.0423 14.1954 67.3234 13.5425C67.3234 13.5425 67.4605 13.5022 67.4605 13.6473ZM67.4605 13.6473V14.5017C67.4605 14.6307 67.3476 14.671 67.3476 14.671C65.4937 15.4932 62.487 16.13 61.0925 16.1864H61.0845H61.0683C60.9716 16.1864 60.8829 16.0977 60.8829 16.001V14.6387C60.8829 14.534 60.9716 14.4534 61.0764 14.4534H61.0845C62.3258 14.4211 65.0423 14.1954 67.3234 13.5425C67.3234 13.5425 67.4605 13.5022 67.4605 13.6473ZM65.268 8.89149H63.0755V11.6321H65.268V8.89149ZM67.4605 8.8431V11.6805C67.4605 12.2286 67.0171 12.6719 66.469 12.6719H61.8825C61.3263 12.6719 60.891 12.2286 60.891 11.6805V8.83506C60.891 8.28693 61.3343 7.84358 61.8825 7.84358H66.469C67.0252 7.85164 67.4605 8.29497 67.4605 8.8431ZM65.268 8.89149H63.0755V11.6321H65.268V8.89149ZM67.4605 8.8431V11.6805C67.4605 12.2286 67.0171 12.6719 66.469 12.6719H61.8825C61.3263 12.6719 60.891 12.2286 60.891 11.6805V8.83506C60.891 8.28693 61.3343 7.84358 61.8825 7.84358H66.469C67.0252 7.85164 67.4605 8.29497 67.4605 8.8431ZM67.4605 13.6473V14.5017C67.4605 14.6307 67.3476 14.671 67.3476 14.671C65.4937 15.4932 62.487 16.13 61.0925 16.1864H61.0845H61.0683C60.9716 16.1864 60.8829 16.0977 60.8829 16.001V14.6387C60.8829 14.534 60.9716 14.4534 61.0764 14.4534H61.0845C62.3258 14.4211 65.0423 14.1954 67.3234 13.5425C67.3234 13.5425 67.4605 13.5022 67.4605 13.6473ZM67.4605 13.6473V14.5017C67.4605 14.6307 67.3476 14.671 67.3476 14.671C65.4937 15.4932 62.487 16.13 61.0925 16.1864H61.0845H61.0683C60.9716 16.1864 60.8829 16.0977 60.8829 16.001V14.6387C60.8829 14.534 60.9716 14.4534 61.0764 14.4534H61.0845C62.3258 14.4211 65.0423 14.1954 67.3234 13.5425C67.3234 13.5425 67.4605 13.5022 67.4605 13.6473ZM65.268 8.89149H63.0755V11.6321H65.268V8.89149ZM67.4605 8.8431V11.6805C67.4605 12.2286 67.0171 12.6719 66.469 12.6719H61.8825C61.3263 12.6719 60.891 12.2286 60.891 11.6805V8.83506C60.891 8.28693 61.3343 7.84358 61.8825 7.84358H66.469C67.0252 7.85164 67.4605 8.29497 67.4605 8.8431ZM65.268 8.89149H63.0755V11.6321H65.268V8.89149ZM67.4605 8.8431V11.6805C67.4605 12.2286 67.0171 12.6719 66.469 12.6719H61.8825C61.3263 12.6719 60.891 12.2286 60.891 11.6805V8.83506C60.891 8.28693 61.3343 7.84358 61.8825 7.84358H66.469C67.0252 7.85164 67.4605 8.29497 67.4605 8.8431ZM67.4605 13.6473V14.5017C67.4605 14.6307 67.3476 14.671 67.3476 14.671C65.4937 15.4932 62.487 16.13 61.0925 16.1864H61.0845H61.0683C60.9716 16.1864 60.8829 16.0977 60.8829 16.001V14.6387C60.8829 14.534 60.9716 14.4534 61.0764 14.4534H61.0845C62.3258 14.4211 65.0423 14.1954 67.3234 13.5425C67.3234 13.5425 67.4605 13.5022 67.4605 13.6473ZM67.4605 13.6473V14.5017C67.4605 14.6307 67.3476 14.671 67.3476 14.671C65.4937 15.4932 62.487 16.13 61.0925 16.1864H61.0845H61.0683C60.9716 16.1864 60.8829 16.0977 60.8829 16.001V14.6387C60.8829 14.534 60.9716 14.4534 61.0764 14.4534H61.0845C62.3258 14.4211 65.0423 14.1954 67.3234 13.5425C67.3234 13.5425 67.4605 13.5022 67.4605 13.6473ZM65.268 8.89149H63.0755V11.6321H65.268V8.89149ZM67.4605 8.8431V11.6805C67.4605 12.2286 67.0171 12.6719 66.469 12.6719H61.8825C61.3263 12.6719 60.891 12.2286 60.891 11.6805V8.83506C60.891 8.28693 61.3343 7.84358 61.8825 7.84358H66.469C67.0252 7.85164 67.4605 8.29497 67.4605 8.8431ZM63.0835 11.6321H65.276V8.89149H63.0835V11.6321ZM60.891 11.6805V8.83506C60.891 8.28693 61.3343 7.84358 61.8825 7.84358H66.469C67.0252 7.85164 67.4605 8.28691 67.4605 8.8431V11.6805C67.4605 12.2286 67.0171 12.6719 66.469 12.6719H61.8825C61.3263 12.6719 60.891 12.2286 60.891 11.6805ZM67.3476 14.671C65.4937 15.4932 62.487 16.13 61.0925 16.1864H61.0845H61.0683C60.9716 16.1864 60.8829 16.0977 60.8829 16.001V14.6387C60.8829 14.534 60.9716 14.4534 61.0764 14.4534H61.0845C62.3258 14.4211 65.0423 14.1954 67.3234 13.5425C67.3234 13.5425 67.4605 13.5022 67.4605 13.6473V14.5017C67.4605 14.6226 67.3476 14.671 67.3476 14.671ZM73.6511 3.91803H72.5871C72.6838 4.43391 72.8531 5.34478 73.0224 6.27176C73.0385 6.78765 72.6274 6.78763 72.6274 6.78763H69.6933C69.8303 8.17407 70.1205 9.891 70.6848 11.6241C71.0072 11.0437 71.2893 10.4472 71.5311 9.85876C71.5795 9.72979 71.7165 9.77815 71.7165 9.77815L72.8773 10.2457C72.8773 10.2457 73.0143 10.294 72.9337 10.4472C72.4742 11.3903 71.9342 12.3495 71.3135 13.2604C71.8213 14.4131 72.4742 15.5416 73.3206 16.5492C73.4012 16.6217 73.3367 16.6781 73.3367 16.6781L72.7805 17.331C72.7805 17.331 72.6838 17.4116 72.5951 17.3149C71.7085 16.5088 70.983 15.5174 70.3946 14.4614C69.524 15.5174 68.5003 16.4444 67.3073 17.1215C67.1864 17.2101 67.138 17.065 67.138 17.065L66.7673 16.3718C66.7673 16.3718 66.6947 16.267 66.7995 16.2025C67.9361 15.4206 68.9195 14.3405 69.7497 13.1475C68.7905 10.955 68.2988 8.60129 68.057 6.78763H60.0446L60.0366 17.9678H73.6592V3.91803H73.6511ZM60.0366 5.57046H67.9119C67.8393 4.80469 67.8151 4.22433 67.799 3.91803H60.0366V5.57046V5.57046ZM69.5966 5.57046H71.2329C71.1361 4.86112 71.0314 4.28076 70.9588 3.91803H69.5643C69.5563 4.22433 69.5563 4.80469 69.5966 5.57046ZM75.9161 3.70844L75.9081 18.1935C75.9081 18.7416 75.4647 19.185 74.9166 19.185H58.771C58.2229 19.185 57.7796 18.7336 57.7796 18.1855V3.7004C57.7796 3.15227 58.2229 2.70892 58.7791 2.70892H74.9247C75.4647 2.70892 75.9161 3.15225 75.9161 3.70844ZM65.268 8.89149H63.0755V11.6321H65.268V8.89149ZM67.4605 8.8431V11.6805C67.4605 12.2286 67.0171 12.6719 66.469 12.6719H61.8825C61.3263 12.6719 60.891 12.2286 60.891 11.6805V8.83506C60.891 8.28693 61.3343 7.84358 61.8825 7.84358H66.469C67.0252 7.85164 67.4605 8.29497 67.4605 8.8431ZM67.4605 13.6473V14.5017C67.4605 14.6307 67.3476 14.671 67.3476 14.671C65.4937 15.4932 62.487 16.13 61.0925 16.1864H61.0845H61.0683C60.9716 16.1864 60.8829 16.0977 60.8829 16.001V14.6387C60.8829 14.534 60.9716 14.4534 61.0764 14.4534H61.0845C62.3258 14.4211 65.0423 14.1954 67.3234 13.5425C67.3234 13.5425 67.4605 13.5022 67.4605 13.6473ZM67.4605 13.6473V14.5017C67.4605 14.6307 67.3476 14.671 67.3476 14.671C65.4937 15.4932 62.487 16.13 61.0925 16.1864H61.0845H61.0683C60.9716 16.1864 60.8829 16.0977 60.8829 16.001V14.6387C60.8829 14.534 60.9716 14.4534 61.0764 14.4534H61.0845C62.3258 14.4211 65.0423 14.1954 67.3234 13.5425C67.3234 13.5425 67.4605 13.5022 67.4605 13.6473ZM65.268 8.89149H63.0755V11.6321H65.268V8.89149ZM67.4605 8.8431V11.6805C67.4605 12.2286 67.0171 12.6719 66.469 12.6719H61.8825C61.3263 12.6719 60.891 12.2286 60.891 11.6805V8.83506C60.891 8.28693 61.3343 7.84358 61.8825 7.84358H66.469C67.0252 7.85164 67.4605 8.29497 67.4605 8.8431ZM65.268 8.89149H63.0755V11.6321H65.268V8.89149ZM67.4605 8.8431V11.6805C67.4605 12.2286 67.0171 12.6719 66.469 12.6719H61.8825C61.3263 12.6719 60.891 12.2286 60.891 11.6805V8.83506C60.891 8.28693 61.3343 7.84358 61.8825 7.84358H66.469C67.0252 7.85164 67.4605 8.29497 67.4605 8.8431ZM67.4605 13.6473V14.5017C67.4605 14.6307 67.3476 14.671 67.3476 14.671C65.4937 15.4932 62.487 16.13 61.0925 16.1864H61.0845H61.0683C60.9716 16.1864 60.8829 16.0977 60.8829 16.001V14.6387C60.8829 14.534 60.9716 14.4534 61.0764 14.4534H61.0845C62.3258 14.4211 65.0423 14.1954 67.3234 13.5425C67.3234 13.5425 67.4605 13.5022 67.4605 13.6473ZM67.4605 13.6473V14.5017C67.4605 14.6307 67.3476 14.671 67.3476 14.671C65.4937 15.4932 62.487 16.13 61.0925 16.1864H61.0845H61.0683C60.9716 16.1864 60.8829 16.0977 60.8829 16.001V14.6387C60.8829 14.534 60.9716 14.4534 61.0764 14.4534H61.0845C62.3258 14.4211 65.0423 14.1954 67.3234 13.5425C67.3234 13.5425 67.4605 13.5022 67.4605 13.6473ZM65.268 8.89149H63.0755V11.6321H65.268V8.89149ZM67.4605 8.8431V11.6805C67.4605 12.2286 67.0171 12.6719 66.469 12.6719H61.8825C61.3263 12.6719 60.891 12.2286 60.891 11.6805V8.83506C60.891 8.28693 61.3343 7.84358 61.8825 7.84358H66.469C67.0252 7.85164 67.4605 8.29497 67.4605 8.8431ZM65.268 8.89149H63.0755V11.6321H65.268V8.89149ZM67.4605 8.8431V11.6805C67.4605 12.2286 67.0171 12.6719 66.469 12.6719H61.8825C61.3263 12.6719 60.891 12.2286 60.891 11.6805V8.83506C60.891 8.28693 61.3343 7.84358 61.8825 7.84358H66.469C67.0252 7.85164 67.4605 8.29497 67.4605 8.8431ZM67.4605 13.6473V14.5017C67.4605 14.6307 67.3476 14.671 67.3476 14.671C65.4937 15.4932 62.487 16.13 61.0925 16.1864H61.0845H61.0683C60.9716 16.1864 60.8829 16.0977 60.8829 16.001V14.6387C60.8829 14.534 60.9716 14.4534 61.0764 14.4534H61.0845C62.3258 14.4211 65.0423 14.1954 67.3234 13.5425C67.3234 13.5425 67.4605 13.5022 67.4605 13.6473ZM67.4605 13.6473V14.5017C67.4605 14.6307 67.3476 14.671 67.3476 14.671C65.4937 15.4932 62.487 16.13 61.0925 16.1864H61.0845H61.0683C60.9716 16.1864 60.8829 16.0977 60.8829 16.001V14.6387C60.8829 14.534 60.9716 14.4534 61.0764 14.4534H61.0845C62.3258 14.4211 65.0423 14.1954 67.3234 13.5425C67.3234 13.5425 67.4605 13.5022 67.4605 13.6473ZM65.268 8.89149H63.0755V11.6321H65.268V8.89149ZM67.4605 8.8431V11.6805C67.4605 12.2286 67.0171 12.6719 66.469 12.6719H61.8825C61.3263 12.6719 60.891 12.2286 60.891 11.6805V8.83506C60.891 8.28693 61.3343 7.84358 61.8825 7.84358H66.469C67.0252 7.85164 67.4605 8.29497 67.4605 8.8431ZM65.268 8.89149H63.0755V11.6321H65.268V8.89149ZM67.4605 8.8431V11.6805C67.4605 12.2286 67.0171 12.6719 66.469 12.6719H61.8825C61.3263 12.6719 60.891 12.2286 60.891 11.6805V8.83506C60.891 8.28693 61.3343 7.84358 61.8825 7.84358H66.469C67.0252 7.85164 67.4605 8.29497 67.4605 8.8431ZM67.4605 13.6473V14.5017C67.4605 14.6307 67.3476 14.671 67.3476 14.671C65.4937 15.4932 62.487 16.13 61.0925 16.1864H61.0845H61.0683C60.9716 16.1864 60.8829 16.0977 60.8829 16.001V14.6387C60.8829 14.534 60.9716 14.4534 61.0764 14.4534H61.0845C62.3258 14.4211 65.0423 14.1954 67.3234 13.5425C67.3234 13.5425 67.4605 13.5022 67.4605 13.6473ZM67.4605 13.6473V14.5017C67.4605 14.6307 67.3476 14.671 67.3476 14.671C65.4937 15.4932 62.487 16.13 61.0925 16.1864H61.0845H61.0683C60.9716 16.1864 60.8829 16.0977 60.8829 16.001V14.6387C60.8829 14.534 60.9716 14.4534 61.0764 14.4534H61.0845C62.3258 14.4211 65.0423 14.1954 67.3234 13.5425C67.3234 13.5425 67.4605 13.5022 67.4605 13.6473ZM65.268 8.89149H63.0755V11.6321H65.268V8.89149ZM67.4605 8.8431V11.6805C67.4605 12.2286 67.0171 12.6719 66.469 12.6719H61.8825C61.3263 12.6719 60.891 12.2286 60.891 11.6805V8.83506C60.891 8.28693 61.3343 7.84358 61.8825 7.84358H66.469C67.0252 7.85164 67.4605 8.29497 67.4605 8.8431ZM65.268 8.89149H63.0755V11.6321H65.268V8.89149ZM67.4605 8.8431V11.6805C67.4605 12.2286 67.0171 12.6719 66.469 12.6719H61.8825C61.3263 12.6719 60.891 12.2286 60.891 11.6805V8.83506C60.891 8.28693 61.3343 7.84358 61.8825 7.84358H66.469C67.0252 7.85164 67.4605 8.29497 67.4605 8.8431ZM67.4605 13.6473V14.5017C67.4605 14.6307 67.3476 14.671 67.3476 14.671C65.4937 15.4932 62.487 16.13 61.0925 16.1864H61.0845H61.0683C60.9716 16.1864 60.8829 16.0977 60.8829 16.001V14.6387C60.8829 14.534 60.9716 14.4534 61.0764 14.4534H61.0845C62.3258 14.4211 65.0423 14.1954 67.3234 13.5425C67.3234 13.5425 67.4605 13.5022 67.4605 13.6473Z" fill="#040000"/>
<path d="M97.0916 17.202C95.4392 16.4281 93.5127 15.751 91.7877 15.3561C91.6265 15.2996 91.5942 15.4286 91.5942 15.4286L91.2557 16.1541C91.2557 16.1541 91.1831 16.3072 91.3282 16.3636C92.9887 17.0891 94.4396 17.6695 95.9954 18.5964C96.1566 18.669 96.342 18.6609 96.4548 18.5078C96.745 18.0806 96.8659 17.8871 97.1561 17.4599C97.2206 17.3632 97.1883 17.2503 97.0916 17.202ZM87.5961 15.9848C87.5397 15.5898 87.5316 15.6382 87.451 15.2351C87.443 15.1707 87.3704 15.0981 87.2737 15.1384C85.4359 16.0896 83.6141 16.5651 81.6312 17.1133C81.5103 17.1536 81.478 17.2423 81.5264 17.347C81.6876 17.6937 81.9617 18.2982 82.0826 18.5561C82.131 18.6448 82.2519 18.7174 82.3889 18.6609C84.0091 18.1128 86.0404 17.081 87.5236 16.2266C87.6042 16.1621 87.6122 16.0976 87.5961 15.9848ZM98.3813 9.30246H86.8948C87.2979 8.77851 87.6767 8.25458 88.0153 7.73064H96.213C96.3178 7.73064 96.3984 7.65002 96.3984 7.54523V6.55376C96.3984 6.44897 96.3178 6.36838 96.213 6.36838H88.8375C89.1518 5.80413 89.4259 5.27211 89.6597 4.79653H97.7203C97.8251 4.79653 97.9058 4.71592 97.9058 4.61113V3.61968C97.9058 3.51489 97.8251 3.43427 97.7203 3.43427H90.2561C90.3368 3.23275 90.4012 3.06349 90.4415 2.94258C90.506 2.75719 90.498 2.62014 90.2884 2.57177C89.8531 2.47504 88.9584 2.29771 88.6924 2.22517C88.3458 2.1365 88.2813 2.49118 88.2813 2.49118L88.1362 2.95869C88.0878 3.10379 88.0314 3.265 87.975 3.43427H81.3168C81.212 3.43427 81.1314 3.51489 81.1314 3.61968V4.61113C81.1314 4.71592 81.212 4.79653 81.3168 4.79653H87.4188C87.2011 5.28823 86.9432 5.82025 86.653 6.36838H82.8C82.6952 6.36838 82.6146 6.44897 82.6146 6.55376V7.54523C82.6146 7.65002 82.6952 7.73064 82.8 7.73064H85.8631C85.5326 8.26264 85.1698 8.78657 84.7749 9.30246H80.5994C80.4946 9.30246 80.414 9.38307 80.414 9.48786V10.4793C80.414 10.5841 80.4946 10.6647 80.5994 10.6647H83.6141C82.7194 11.5998 81.7118 12.3978 80.5833 12.9298C80.2931 13.0265 80.4302 13.2925 80.4302 13.2925L80.6478 13.8245C80.6478 13.8245 80.7203 14.0422 80.9863 13.9454C81.6957 13.6875 82.3647 13.3489 82.9935 12.954C84.4605 13.3247 86.2177 14.1147 86.653 14.292C86.79 14.3646 86.8465 14.2517 86.8465 14.2517L87.3785 13.1313C87.3785 13.1313 87.4671 12.9943 87.3221 12.9217C86.7094 12.6557 85.3311 12.2607 84.259 12.027C84.7749 11.6078 85.2585 11.1484 85.7099 10.6647H92.9081C93.3434 11.1161 93.8351 11.5433 94.359 11.9464C93.5046 12.3494 92.1182 12.6557 91.3443 12.7444C91.2476 12.7525 91.2073 12.825 91.2315 12.9378C91.3766 13.3812 91.425 13.7358 91.57 14.1711C91.6184 14.3162 91.6909 14.3162 91.7877 14.292C92.3036 14.2195 94.5203 13.3892 95.4875 12.7363C96.2856 13.228 97.1239 13.6472 97.9541 13.9535C98.2121 14.0502 98.2927 13.8326 98.2927 13.8326L98.5103 13.3006C98.5103 13.3006 98.6554 13.0426 98.3572 12.9459C97.2287 12.4139 95.947 11.6078 94.9958 10.6728H98.3572C98.4619 10.6728 98.5425 10.5922 98.5425 10.4874V9.49593C98.5667 9.38308 98.4861 9.30246 98.3813 9.30246ZM89.5791 11.5836H88.5392C88.4102 11.5836 88.3135 11.6884 88.3135 11.8093V17.1939C88.3055 17.6937 88.2168 17.9677 87.4027 17.9677H86.9351C86.8626 17.9677 86.8626 18.0322 86.8626 18.0322V18.9028C86.8626 19.064 86.9916 19.1849 87.1447 19.1849H87.9991C89.9498 19.1849 90.5625 18.9189 90.5705 17.2261V12.5751C90.5705 12.027 90.1272 11.5836 89.5791 11.5836Z" fill="#040000"/>
<path d="M138.193 9.54431H135.388V7.81931H138.193V9.54431ZM138.193 12.5913H135.388V10.8663H138.193V12.5913ZM133.22 9.54431H130.423V7.81931H133.22V9.54431ZM133.22 12.5913H130.423V10.8663H133.22V12.5913ZM143.368 10.8663C143.465 10.8663 143.553 10.7776 143.553 10.6809V9.73776C143.553 9.63297 143.465 9.55235 143.368 9.55235H140.353V7.82738H142.014C142.111 7.82738 142.199 7.7387 142.199 7.64197V6.69082C142.199 6.59409 142.119 6.50541 142.014 6.50541H126.594C126.497 6.50541 126.408 6.59409 126.408 6.69082V7.64197C126.408 7.7387 126.489 7.82738 126.594 7.82738H128.254V9.55235H125.24C125.143 9.55235 125.054 9.63297 125.054 9.73776V10.6809C125.054 10.7857 125.135 10.8663 125.24 10.8663H128.254V12.5913H126.594C126.497 12.5913 126.408 12.6718 126.408 12.7766V13.7278C126.408 13.8245 126.489 13.9132 126.594 13.9132H133.22V15.6462H125.232C125.135 15.6462 125.046 15.7269 125.046 15.8316V16.7828C125.046 16.8795 125.127 16.9682 125.232 16.9682H133.22V18.1773C133.22 18.7335 133.671 19.1849 134.227 19.1849H135.146C135.275 19.1849 135.38 19.0801 135.38 18.9511V16.9601H143.368C143.465 16.9601 143.553 16.8795 143.553 16.7748V15.8236C143.553 15.7268 143.465 15.6382 143.368 15.6382H135.38V13.9051H142.006C142.103 13.9051 142.191 13.8245 142.191 13.7197V12.7686C142.191 12.6719 142.111 12.5832 142.006 12.5832H140.345V10.8582H143.368V10.8663ZM143.376 3.45043H139.217C139.16 2.9426 138.741 2.54761 138.217 2.54761H137.298C137.169 2.54761 137.065 2.6524 137.065 2.77331V3.45043H131.551V2.77331C131.551 2.64433 131.446 2.54761 131.317 2.54761H130.398C129.874 2.54761 129.455 2.9426 129.399 3.45043H125.24C125.135 3.45043 125.054 3.53102 125.054 3.63581V4.58696C125.054 4.69175 125.135 4.77237 125.24 4.77237H129.383V5.51396C129.383 5.64293 129.488 5.7477 129.617 5.7477H131.317C131.446 5.7477 131.543 5.64293 131.543 5.51396V4.77237H137.057V5.51396C137.057 5.64293 137.161 5.7477 137.29 5.7477H138.991C139.12 5.7477 139.225 5.64293 139.225 5.51396V4.77237H143.368C143.473 4.77237 143.553 4.69175 143.553 4.58696V3.63581C143.562 3.53102 143.473 3.45043 143.376 3.45043Z" fill="#040000"/>
<path d="M84.8071 31.4052L83.461 27.7617H82.276L84.2751 32.5417C83.8882 33.4687 83.4207 34.17 83.0176 34.5408L84.0494 35.0002C84.4363 34.5649 84.8635 33.8072 85.2988 32.711C85.8227 31.4052 86.6288 29.0434 87.048 27.7617H85.8792C85.6212 28.8015 85.1779 30.3331 84.8071 31.4052ZM80.6155 31.2036C80.5107 31.7034 80.0271 32.1548 79.3984 32.1548C79.0437 32.1548 78.5198 32.0258 78.5198 31.3971C78.5198 30.7119 79.0114 30.583 80.6155 30.4943V31.2036ZM81.6231 31.3487V29.3497C81.6231 28.1728 81.1798 27.6086 79.8256 27.6086C79.1404 27.6086 78.415 27.794 77.9394 28.0116L78.1731 28.8983C78.6648 28.6403 79.1807 28.4872 79.7047 28.4872C80.5269 28.4872 80.6236 28.8338 80.6236 29.3497V29.7043C78.2054 29.8011 77.5444 30.1799 77.5444 31.4213C77.5444 32.6223 78.415 33.0253 79.2049 33.0253C79.8417 33.0253 80.4624 32.7271 80.7606 32.1629C80.809 32.4692 80.9138 32.7755 81.0911 33.0012L81.9859 32.84C81.736 32.5498 81.6231 32.0016 81.6231 31.3487ZM74.8602 27.665C74.2153 27.665 73.6108 27.9552 73.2803 28.3018V25.7224L72.2082 25.8836V32.9044H73.2803V29.1079C73.5463 28.7774 74.0461 28.5436 74.5458 28.5436C75.2632 28.5436 75.4809 29.0272 75.4809 29.6882V32.9044H76.5368V29.4222C76.5288 28.4953 76.1741 27.665 74.8602 27.665ZM70.2334 26.3914L69.1935 26.6574V27.8262H68.3794V28.6565H69.1935V31.7276C69.1935 32.6707 69.7578 32.9931 70.6364 32.9448L71.12 32.9206V32.1145H70.8218C70.3704 32.1145 70.2414 31.9291 70.2414 31.3245V28.6565H71.3135V27.8262H70.2414V26.3914H70.2334ZM66.5496 31.2036C66.4529 31.7034 65.9612 32.1548 65.3325 32.1548C64.9778 32.1548 64.4538 32.0258 64.4538 31.3971C64.4538 30.7119 64.9455 30.583 66.5496 30.4943V31.2036ZM67.5572 31.3487V29.3497C67.5572 28.1728 67.1139 27.6086 65.7597 27.6086C65.0664 27.6086 64.341 27.794 63.8735 28.0116L64.1072 28.8983C64.5989 28.6403 65.1148 28.4872 65.6388 28.4872C66.4609 28.4872 66.5577 28.8338 66.5577 29.3497V29.7043C64.1395 29.8011 63.4785 30.1799 63.4785 31.4213C63.4785 32.6223 64.349 33.0253 65.139 33.0253C65.7758 33.0253 66.3965 32.7271 66.6947 32.1629C66.735 32.4692 66.8479 32.7755 67.0171 33.0012L67.9119 32.84C67.6701 32.5498 67.5572 32.0016 67.5572 31.3487ZM61.1248 32.042C59.6335 32.042 58.9323 31.1069 58.9323 29.5995C58.9323 28.0196 59.5449 26.9315 61.1006 26.9315C61.5762 26.9315 62.092 27.0282 62.4951 27.1894L62.6724 26.206C62.2694 26.0851 61.6487 25.9642 61.0603 25.9642C58.4486 25.9642 57.7715 27.7214 57.7715 29.5834V29.5915C57.7715 31.4132 58.505 33.0253 61.0764 33.0253C61.681 33.0253 62.3419 32.9125 62.7127 32.7835L62.5999 31.7921C62.2371 31.9291 61.5923 32.042 61.1248 32.042Z" fill="#040000"/>
<path d="M117.38 30.5908C117.38 30.8326 117.364 31.1148 117.324 31.2841C117.171 31.6387 116.719 32.1223 116.002 32.1223C115.164 32.1223 114.841 31.3727 114.841 30.4054C114.841 29.3092 115.164 28.5031 116.115 28.5031C116.695 28.5031 117.122 28.8255 117.324 29.1157C117.364 29.3414 117.38 29.6316 117.38 29.9137V30.5908V30.5908ZM118.38 31.1389V25.7141L117.348 25.8753V28.1807C117.042 27.8583 116.486 27.6084 115.921 27.6084C114.317 27.6084 113.753 28.9142 113.753 30.4296C113.753 32.0418 114.43 33.0171 115.768 33.0171H115.784C116.679 33.0171 117.195 32.5415 117.445 32.211C117.469 32.4529 117.542 32.7511 117.671 32.9607L118.589 32.7833C118.404 32.3319 118.38 31.7838 118.38 31.1389ZM109.489 29.7606C109.545 29.0835 109.981 28.4144 110.738 28.4144H110.746C111.569 28.4144 111.867 28.9384 111.867 29.7606H109.489ZM112.842 29.9057C112.842 28.5595 112.278 27.5922 110.851 27.5922C109.247 27.5922 108.401 28.8255 108.401 30.4054C108.401 31.9208 109.142 33.0574 110.988 33.0574C111.77 33.0574 112.439 32.872 112.762 32.7108L112.568 31.8564C112.157 32.0418 111.593 32.1546 111.077 32.1546H111.069C110.061 32.1546 109.449 31.6307 109.457 30.5263H112.834V29.9057H112.842ZM106.764 26.3912L105.725 26.6572V27.826H104.91V28.6563H105.725V31.7274C105.725 32.6705 106.289 32.9929 107.167 32.9446L107.651 32.9204V32.1143H107.353C106.901 32.1143 106.772 31.9289 106.772 31.3243V28.6563H107.845V27.826H106.772V26.3912H106.764ZM102.984 32.9042H104.056V27.7696H102.984V32.9042ZM99.9451 27.6648C99.3002 27.6648 98.6473 27.9872 98.3088 28.358C98.2926 28.1807 98.212 27.8663 98.1395 27.689L97.1641 27.826C97.2528 28.1323 97.2851 28.5273 97.2851 28.89V32.9123H98.3491V29.0996C98.6231 28.7933 99.1309 28.5515 99.6226 28.5515C100.34 28.5515 100.558 29.0351 100.558 29.6961V32.9123H101.622V29.4301C101.622 28.495 101.267 27.6648 99.9451 27.6648ZM94.7701 30.3168C94.7701 31.3324 94.4074 32.1062 93.158 32.1062C91.9005 32.1062 91.5458 31.3405 91.5458 30.3168V26.1091H90.4496V30.6956C90.4496 32.2433 91.6184 33.0493 93.1257 33.0493H93.1338C94.6895 33.0493 95.8502 32.2433 95.8502 30.6956V26.1091H94.762V30.3168H94.7701Z" fill="#040000"/>
<path d="M141.272 30.2522L143.352 27.7695H142.127L140.192 30.2845V25.7302L139.12 25.8914V32.9122H140.192V30.3892L142.175 32.9122H143.457L141.272 30.2522ZM136.073 27.6647C135.428 27.6647 134.775 27.9791 134.437 28.358C134.421 28.1806 134.34 27.8662 134.267 27.6889L133.292 27.8259C133.381 28.1323 133.413 28.5272 133.413 28.89V32.9122H134.477V29.0995C134.751 28.7932 135.259 28.5514 135.751 28.5514C136.468 28.5514 136.686 29.0351 136.686 29.696V32.9122H137.75V29.43C137.75 28.495 137.395 27.6647 136.073 27.6647ZM131.019 31.2034C130.914 31.7031 130.423 32.1545 129.794 32.1545C129.439 32.1545 128.923 32.0256 128.923 31.3968C128.923 30.7117 129.407 30.5827 131.019 30.494V31.2034V31.2034ZM132.019 31.3485V29.3494C132.019 28.1725 131.575 27.6083 130.221 27.6083C129.528 27.6083 128.802 27.7937 128.335 28.0114L128.56 28.898C129.052 28.6401 129.568 28.4869 130.092 28.4869C130.914 28.4869 131.011 28.8335 131.011 29.3494V29.7041C128.585 29.8008 127.924 30.1797 127.924 31.421C127.924 32.6221 128.794 33.0251 129.584 33.0251C130.221 33.0251 130.842 32.7269 131.14 32.1626C131.18 32.4689 131.293 32.7752 131.462 33.0009L132.357 32.8397C132.131 32.5495 132.019 32.0014 132.019 31.3485ZM124.538 31.9933H123.587V29.7766H124.514C125.425 29.7766 125.917 30.1313 125.917 30.8729C125.917 31.8321 125.272 31.9933 124.538 31.9933ZM123.587 26.9957H124.361C125.231 26.9957 125.707 27.2697 125.707 27.963V27.971C125.707 28.6078 125.312 28.898 124.796 28.9786H123.587V26.9957ZM125.707 29.2769C126.328 29.0673 126.747 28.5836 126.747 27.7856C126.747 26.4234 125.626 26.109 124.49 26.109H122.523V32.9042H124.619C125.997 32.9042 127.005 32.3964 127.005 30.9938V30.9857C127.005 29.7686 126.263 29.3736 125.707 29.2769Z" fill="#040000"/>
<path d="M104.072 26.0204H102.968V26.9957H104.072V26.0204Z" fill="#040000"/>
<path d="M204.831 1.03223H204.194V33.0412H204.831V1.03223Z" fill="#040000"/>
<path d="M235.042 15.1303V2.35411C235.042 1.25785 236.3 0.645235 237.162 1.31427L246.36 8.43188L237.203 16.1379C236.356 16.8553 235.042 16.2508 235.042 15.1303ZM230.577 1.31427L221.379 8.43993L230.536 16.1379C231.391 16.8553 232.705 16.2508 232.705 15.1303V2.35411C232.697 1.25785 231.439 0.645235 230.577 1.31427Z" fill="url(#paint2_linear_20_1876)"/>
<path d="M231.181 26.4717L220.517 17.5566V19.5234C220.517 21.6272 221.452 23.6343 223.064 24.9885L232.705 33.0895V29.7202C232.697 28.4708 232.14 27.2778 231.181 26.4717ZM231.189 19.0478L220.517 10.0843V12.1962C220.517 14.2517 221.428 16.2024 223.008 17.5243L232.697 25.6253V22.3043C232.697 21.0388 232.149 19.8458 231.189 19.0478Z" fill="url(#paint3_linear_20_1876)"/>
<path d="M247.222 12.1318V10.0682L236.55 19.0478C235.59 19.8539 235.042 21.0388 235.042 22.2883V25.5851L244.739 17.4518C246.319 16.1299 247.222 14.1792 247.222 12.1318ZM247.222 19.5315V17.5082L236.558 26.4556C235.599 27.2617 235.042 28.4466 235.042 29.7041V33.0977L244.675 24.9966C246.295 23.6344 247.222 21.6353 247.222 19.5315Z" fill="url(#paint4_linear_20_1876)"/>
<path d="M282.891 19.3461L279.352 21.3935L275.813 19.3461V11.1967L272.299 9.33472V19.5234C272.299 20.6761 272.911 21.7321 273.911 22.3124L277.748 24.5291C278.739 25.1014 279.973 25.1014 280.964 24.5291L284.801 22.3124C285.792 21.7401 286.413 20.6761 286.413 19.5234V9.33472L282.899 11.1967V19.3461H282.891Z" fill="#040000"/>
<path d="M261.312 13.2119L264.851 15.2593L268.365 13.2361L262.924 10.0924C261.933 9.52013 260.7 9.52013 259.708 10.0924L255.871 12.3091C254.88 12.8814 254.259 13.9454 254.259 15.0981V19.5234C254.259 20.6761 254.872 21.7321 255.871 22.3125L259.708 24.5291C260.7 25.1015 261.933 25.1015 262.924 24.5291L268.365 21.3855L264.851 19.3622L261.312 21.4097L257.774 19.3622V15.2755L261.312 13.2119Z" fill="#040000"/>
<path d="M303.26 12.301L299.423 10.0843C298.432 9.51201 297.198 9.51201 296.207 10.0843L294.272 11.1967V7.0938L290.758 5.15924V13.228V15.1948V19.5153C290.758 20.668 291.37 21.724 292.37 22.3043L296.207 24.521C297.198 25.0933 298.432 25.0933 299.423 24.521L303.26 22.3043C304.251 21.732 304.872 20.668 304.872 19.5153V15.09C304.864 13.9373 304.251 12.8814 303.26 12.301ZM301.358 19.3461L297.819 21.3935L294.28 19.3461V15.2593L297.819 13.2119L301.358 15.2593V19.3461Z" fill="#040000"/>
<path d="M322.678 12.833L317.947 10.1165C316.971 9.56841 315.778 9.56841 314.803 10.1165L310.934 12.3574C309.942 12.9297 309.33 13.9937 309.33 15.1384V19.4911C309.33 20.6358 309.942 21.7642 310.934 22.3446L318.898 26.9392L318.857 22.8927L312.828 19.4025V15.3157L316.367 13.2763L319.857 15.2915L316.351 17.3147V21.3612L322.549 17.7823C323.073 17.484 323.396 16.9278 323.404 16.3233L323.436 14.1388C323.428 13.5907 323.146 13.099 322.678 12.833Z" fill="#040000"/>
<defs>
<linearGradient id="paint0_linear_20_1876" x1="28.7192" y1="-1.02789" x2="24.8151" y2="28.446" gradientUnits="userSpaceOnUse">
<stop stop-color="#71BF44"/>
<stop offset="1" stop-color="#00984E"/>
</linearGradient>
<linearGradient id="paint1_linear_20_1876" x1="35.4793" y1="-3.04438" x2="10.4801" y2="28.0393" gradientUnits="userSpaceOnUse">
<stop stop-color="#51B848"/>
<stop offset="1" stop-color="#00994E"/>
</linearGradient>
<linearGradient id="paint2_linear_20_1876" x1="228.78" y1="-0.3846" x2="240.086" y2="19.1981" gradientUnits="userSpaceOnUse">
<stop offset="0.00171638" stop-color="#464749"/>
<stop offset="0.00386762" stop-color="#464749"/>
<stop offset="0.2972" stop-color="#7C7979"/>
<stop offset="0.516" stop-color="#A2A0A0"/>
<stop offset="0.6343" stop-color="#B0B0B0"/>
<stop offset="0.6919" stop-color="#AAA8A8"/>
<stop offset="0.7738" stop-color="#969393"/>
<stop offset="0.87" stop-color="#777374"/>
<stop offset="0.9758" stop-color="#514F51"/>
</linearGradient>
<linearGradient id="paint3_linear_20_1876" x1="220.639" y1="10.9584" x2="233.207" y2="32.7262" gradientUnits="userSpaceOnUse">
<stop stop-color="#666868"/>
<stop offset="0.3818" stop-color="#A0A0A0"/>
<stop offset="0.5888" stop-color="#BABABA"/>
<stop offset="0.6633" stop-color="#B5B5B5"/>
<stop offset="0.7527" stop-color="#A6A7A7"/>
<stop offset="0.8496" stop-color="#8E8F8F"/>
<stop offset="0.9513" stop-color="#6D6D6D"/>
<stop offset="0.9996" stop-color="#5A5B5B"/>
</linearGradient>
<linearGradient id="paint4_linear_20_1876" x1="234.585" y1="32.6467" x2="247.413" y2="10.4268" gradientUnits="userSpaceOnUse">
<stop stop-color="#58595A"/>
<stop offset="0.568" stop-color="#989898"/>
<stop offset="1" stop-color="#979696"/>
</linearGradient>
</defs>
</svg>
